<?xml version="1.0" encoding="utf-8"?>
<svg version="1.1" xmlns:xlink="http://www.w3.org/1999/xlink" width="22px" height="22px" xmlns="http://www.w3.org/2000/svg">
  <g transform="matrix(1 0 0 1 -432 -592 )">
    <path d="M 443 592  C 449.16 592  454 596.84  454 603  C 454 609.16  449.16 614  443 614  C 436.84 614  432 609.16  432 603  C 432 596.84  436.84 592  443 592  Z " fill-rule="nonzero" fill="#ffffff" stroke="none" />
    <path d="M 443 592.5  C 448.88 592.5  453.5 597.12  453.5 603  C 453.5 608.88  448.88 613.5  443 613.5  C 437.12 613.5  432.5 608.88  432.5 603  C 432.5 597.12  437.12 592.5  443 592.5  Z " stroke-width="1" stroke="#797979" fill="none" />
  </g>
</svg>