<?xml version="1.0" encoding="utf-8"?>
<svg version="1.1" xmlns:xlink="http://www.w3.org/1999/xlink" width="40px" height="40px" xmlns="http://www.w3.org/2000/svg">
  <g transform="matrix(1 0 0 1 -12 -801 )">
    <path d="M 39.734375 28.9192708333333  C 39.9114583333333 30.2300347222222  40 31.6232638888889  40 33.0989583333333  C 40 34.9913194444444  39.3489583333333 36.6145833333333  38.046875 37.96875  C 36.7447916666667 39.3229166666667  35.1770833333333 40  33.34375 40  L 6.65625 40  C 4.82291666666667 40  3.25520833333333 39.3229166666667  1.953125 37.96875  C 0.651041666666667 36.6145833333333  0 34.9913194444444  0 33.0989583333333  C 0 31.6232638888889  0.0885416666666669 30.2300347222222  0.265625 28.9192708333333  C 0.442708333333334 27.6085069444444  0.770833333333333 26.2890625  1.25 24.9609375  C 1.72916666666667 23.6328125  2.33854166666667 22.4956597222222  3.078125 21.5494791666667  C 3.81770833333333 20.6032986111111  4.796875 19.8307291666667  6.015625 19.2317708333333  C 7.234375 18.6328125  8.63541666666667 18.3333333333333  10.21875 18.3333333333333  C 12.9479166666667 20.5555555555556  16.2083333333333 21.6666666666667  20 21.6666666666667  C 23.7916666666667 21.6666666666667  27.0520833333333 20.5555555555556  29.78125 18.3333333333333  C 31.3645833333333 18.3333333333333  32.765625 18.6328125  33.984375 19.2317708333333  C 35.203125 19.8307291666667  36.1822916666667 20.6032986111111  36.921875 21.5494791666667  C 37.6614583333333 22.4956597222222  38.2708333333333 23.6328125  38.75 24.9609375  C 39.2291666666667 26.2890625  39.5572916666667 27.6085069444444  39.734375 28.9192708333333  Z M 28.484375 2.9296875  C 30.828125 4.8828125  32 7.23958333333333  32 10  C 32 12.7604166666667  30.828125 15.1171875  28.484375 17.0703125  C 26.140625 19.0234375  23.3125 20  20 20  C 16.6875 20  13.859375 19.0234375  11.515625 17.0703125  C 9.171875 15.1171875  8 12.7604166666667  8 10  C 8 7.23958333333333  9.171875 4.8828125  11.515625 2.9296875  C 13.859375 0.9765625  16.6875 0  20 0  C 23.3125 0  26.140625 0.9765625  28.484375 2.9296875  Z " fill-rule="nonzero" fill="#000000" stroke="none" transform="matrix(1 0 0 1 12 801 )" />
  </g>
</svg>