<?xml version="1.0" encoding="utf-8"?>
<svg version="1.1" xmlns:xlink="http://www.w3.org/1999/xlink" width="40px" height="37px" xmlns="http://www.w3.org/2000/svg">
  <g transform="matrix(1 0 0 1 -12 -919 )">
    <path d="M 37.1354166666667 22.5579927884615  C 37.2673611111111 22.4171674679487  37.3333333333333 22.2504006410256  37 22.0576923076923  L 37 3.55769230769231  C 37.3333333333333 3.36498397435897  37.2673611111111 3.19821714743589  37.1354166666667 3.05739182692308  C 37.0034722222222 2.91656650641025  36.8472222222222 2.84615384615384  36.6666666666667 3  L 3.33333333333333 3  C 3.15277777777778 2.84615384615384  2.99652777777778 2.91656650641025  2.86458333333333 3.05739182692308  C 2.73263888888889 3.19821714743589  2.66666666666667 3.36498397435897  3 3.55769230769231  L 3 22.0576923076923  C 2.66666666666667 22.2504006410256  2.73263888888889 22.4171674679487  2.86458333333333 22.5579927884615  C 2.99652777777778 22.6988181089744  3.15277777777778 22.7692307692308  3.33333333333333 22.7692307692308  L 36.6666666666667 22.7692307692308  C 36.8472222222222 22.7692307692308  37.0034722222222 22.6988181089744  37.1354166666667 22.5579927884615  Z M 39.0208333333333 1.04507211538461  C 39.6736111111111 1.74178685897436  40 2.57932692307692  40 3.55769230769231  L 40 27.75  C 40 28.7283653846154  39.6736111111111 29.5659054487179  39.0208333333333 30.2626201923077  C 38.3680555555556 30.9593349358974  37.5833333333333 31.3076923076923  36.6666666666667 31  L 25.3333333333333 31  C 25.3333333333333 31.8561698717949  25.4444444444444 32.4305889423077  25.6666666666667 33.0309495192308  C 25.8888888888889 33.6313100961538  26.1111111111111 34.1575520833333  26.3333333333333 34.6096754807692  C 26.5555555555556 35.0617988782051  26.6666666666667 35.3842147435897  26.6666666666667 35.5769230769231  C 26.6666666666667 35.9623397435897  26.5347222222222 36.2958733974359  26.2708333333333 36.5775240384615  C 26.0069444444444 36.8591746794872  25.6944444444444 37  25.3333333333333 37  L 14.6666666666667 37  C 14.3055555555556 37  13.9930555555556 36.8591746794872  13.7291666666667 36.5775240384615  C 13.4652777777778 36.2958733974359  13.3333333333333 35.9623397435897  13.3333333333333 35.5769230769231  C 13.3333333333333 35.369391025641  13.4444444444444 35.0432692307692  13.6666666666667 34.5985576923077  C 13.8888888888889 34.1538461538462  14.1111111111111 33.635016025641  14.3333333333333 33.0420673076923  C 14.5555555555556 32.4491185897436  14.6666666666667 31.8709935897436  14.6666666666667 31  L 3.33333333333333 31  C 2.41666666666667 31.3076923076923  1.63194444444444 30.9593349358974  0.979166666666667 30.2626201923077  C 0.326388888888889 29.5659054487179  0 28.7283653846154  0 27.75  L 0 3.55769230769231  C 0 2.57932692307692  0.326388888888889 1.74178685897436  0.979166666666667 1.04507211538461  C 1.63194444444444 0.348357371794872  2.41666666666667 0  3.33333333333333 0  L 36.6666666666667 0  C 37.5833333333333 0  38.3680555555556 0.348357371794872  39.0208333333333 1.04507211538461  Z " fill-rule="nonzero" fill="#000000" stroke="none" transform="matrix(1 0 0 1 12 919 )" />
  </g>
</svg>