<?xml version="1.0" encoding="utf-8"?>
<svg version="1.1" xmlns:xlink="http://www.w3.org/1999/xlink" width="46px" height="27px" xmlns="http://www.w3.org/2000/svg">
  <defs>
    <mask fill="white" id="clip32">
      <path d="M 0 27  L 0 0  L 34.7696104353957 0  L 46 0  L 46 27  L 32.3370350784418 27  L 0 27  Z " fill-rule="evenodd" />
    </mask>
  </defs>
  <g transform="matrix(1 0 0 1 -1652 -1279 )">
    <path d="M 0 27  L 0 0  L 34.7696104353957 0  L 46 0  L 46 27  L 32.3370350784418 27  L 0 27  Z " fill-rule="nonzero" fill="#ffffff" stroke="none" fill-opacity="0" transform="matrix(1 0 0 1 1652 1279 )" />
    <path d="M 0 27  L 0 0  L 34.7696104353957 0  L 46 0  L 46 27  L 32.3370350784418 27  L 0 27  Z " stroke-width="2" stroke="#797979" fill="none" transform="matrix(1 0 0 1 1652 1279 )" mask="url(#clip32)" />
  </g>
</svg>